<?xml version="1.0" encoding="UTF-8" standalone="no"?>
<!DOCTYPE svg PUBLIC "-//W3C//DTD SVG 1.1//EN" "http://www.w3.org/Graphics/SVG/1.1/DTD/svg11.dtd">
<!-- 由 Microsoft Visio, SVG Export 生成 dpeeg_logo.svg Page-4 -->
<svg xmlns="http://www.w3.org/2000/svg" xmlns:xlink="http://www.w3.org/1999/xlink" xmlns:ev="http://www.w3.org/2001/xml-events"
		xmlns:v="http://schemas.microsoft.com/visio/2003/SVGExtensions/" width="7.67717in" height="3.14961in"
		viewBox="0 0 552.756 226.772" xml:space="preserve" color-interpolation-filters="sRGB" class="st9">
	<v:documentProperties v:langID="2052" v:metric="true" v:viewMarkup="false">
		<v:userDefs>
			<v:ud v:nameU="msvSubprocessMaster" v:prompt="" v:val="VT4(Rectangle)"/>
			<v:ud v:nameU="msvNoAutoConnect" v:val="VT0(1):26"/>
		</v:userDefs>
	</v:documentProperties>

	<style type="text/css">
	<![CDATA[
		.st1 {visibility:visible}
		.st2 {fill:#000000;fill-opacity:0.4;filter:url(#filter_2.6666667461395);stroke:none}
		.st3 {fill:url(#grad0-7);stroke:none;stroke-width:0.25}
		.st4 {fill:url(#grad0-14);stroke:none;stroke-width:0.25}
		.st5 {fill:none;filter:url(#filter_2.6666667461395);stroke:none}
		.st6 {fill:#000000;filter:url(#filter_2.6666667461395);font-family:Helvetica;font-size:16em;opacity:0.4}
		.st7 {fill:none;stroke:none;stroke-width:0.25}
		.st8 {fill:#9cc3e5;font-family:Helvetica;font-size:16em}
		.st9 {fill:none;fill-rule:evenodd;font-size:12px;overflow:visible;stroke-linecap:square;stroke-miterlimit:3}
	]]>
	</style>

	<defs id="Patterns_And_Gradients">
		<linearGradient id="grad0-7" x1="0" y1="0" x2="1" y2="0" gradientTransform="rotate(135 0.5 0.5)">
			<stop offset="0" stop-color="#36d1dc" stop-opacity="1"/>
			<stop offset="1" stop-color="#5b86e5" stop-opacity="1"/>
		</linearGradient>
		<linearGradient id="grad0-14" x1="0" y1="0" x2="1" y2="0" gradientTransform="rotate(315 0.5 0.5)">
			<stop offset="0" stop-color="#5b86e5" stop-opacity="1"/>
			<stop offset="1" stop-color="#36d1dc" stop-opacity="1"/>
		</linearGradient>
	</defs>
	<defs id="Filters">
		<filter id="filter_2.6666667461395">
			<feGaussianBlur stdDeviation="2.6666667461395"/>
		</filter>
	</defs>
	<g v:mID="10" v:index="4" v:groupContext="foregroundPage">
		<v:userDefs>
			<v:ud v:nameU="msvThemeOrder" v:val="VT0(0):26"/>
		</v:userDefs>
		<title>页-4</title>
		<v:pageProperties v:drawingScale="0.0393701" v:pageScale="0.0393701" v:drawingUnits="24" v:shadowOffsetX="8.50394"
				v:shadowOffsetY="-8.50394"/>
		<g id="shape1002-1" v:mID="1002" v:groupContext="shape" transform="translate(-122.561,113.386) rotate(-90) scale(-1,1)">
			<title>L 形状.4</title>
			<v:userDefs>
				<v:ud v:nameU="visVersion" v:prompt="" v:val="VT0(15):26"/>
			</v:userDefs>
			<g id="shadow1002-2" v:groupContext="shadow" v:shadowOffsetX="-2.12132" v:shadowOffsetY="-2.12132" v:shadowType="1"
					transform="matrix(1,0,0,1,2.12132,-2.12132)" class="st1">
				<path d="M11.34 226.77 L74.41 226.77 A10.6299 10.6299 -180 0 0 85.04 216.14 L85.04 216.14 A10.6299 10.6299 -180 0
							 0 74.41 205.51 L32.6 205.51 A11.3386 11.3386 0 0 1 21.26 194.17 L21.26 152.36 A10.6299 10.6299 -180
							 0 0 10.63 141.73 L10.63 141.73 A10.6299 10.6299 -180 0 0 0 152.36 L0 215.43 A11.3386 11.3386 -180 0
							 0 11.34 226.77 Z" class="st2"/>
			</g>
			<path d="M11.34 226.77 L74.41 226.77 A10.6299 10.6299 -180 0 0 85.04 216.14 L85.04 216.14 A10.6299 10.6299 -180 0 0 74.41
						 205.51 L32.6 205.51 A11.3386 11.3386 0 0 1 21.26 194.17 L21.26 152.36 A10.6299 10.6299 -180 0 0 10.63 141.73
						 L10.63 141.73 A10.6299 10.6299 -180 0 0 0 152.36 L0 215.43 A11.3386 11.3386 -180 0 0 11.34 226.77 Z"
					class="st3"/>
		</g>
		<g id="shape1003-8" v:mID="1003" v:groupContext="shape" transform="translate(104.211,-113.386)">
			<title>L 形状</title>
			<v:userDefs>
				<v:ud v:nameU="visVersion" v:prompt="" v:val="VT0(15):26"/>
			</v:userDefs>
			<g id="shadow1003-9" v:groupContext="shadow" v:shadowOffsetX="-2.12132" v:shadowOffsetY="-2.12132" v:shadowType="1"
					transform="matrix(1,0,0,1,-2.12132,2.12132)" class="st1">
				<path d="M11.34 226.77 L74.41 226.77 A10.6299 10.6299 -180 0 0 85.04 216.14 L85.04 216.14 A10.6299 10.6299 -180 0
							 0 74.41 205.51 L32.6 205.51 A11.3386 11.3386 0 0 1 21.26 194.17 L21.26 152.36 A10.6299 10.6299 -180
							 0 0 10.63 141.73 L10.63 141.73 A10.6299 10.6299 -180 0 0 0 152.36 L0 215.43 A11.3386 11.3386 -180 0
							 0 11.34 226.77 Z" class="st2"/>
			</g>
			<path d="M11.34 226.77 L74.41 226.77 A10.6299 10.6299 -180 0 0 85.04 216.14 L85.04 216.14 A10.6299 10.6299 -180 0 0 74.41
						 205.51 L32.6 205.51 A11.3386 11.3386 0 0 1 21.26 194.17 L21.26 152.36 A10.6299 10.6299 -180 0 0 10.63 141.73
						 L10.63 141.73 A10.6299 10.6299 -180 0 0 0 152.36 L0 215.43 A11.3386 11.3386 -180 0 0 11.34 226.77 Z"
					class="st4"/>
		</g>
		<g id="shape1004-15" v:mID="1004" v:groupContext="shape" transform="translate(189.25,-64.3823)">
			<title>工作表.1004</title>
			<desc>eeg</desc>
			<v:textBlock v:margins="rect(4,4,4,4)" v:tabSpace="42.5197"/>
			<v:textRect cx="177.501" cy="168.817" width="355.01" height="115.91"/>
			<g id="shadow1004-16" v:groupContext="shadow" v:shadowOffsetX="-2.12132" v:shadowOffsetY="-2.12132" v:shadowType="1"
					transform="matrix(1,0,0,1,-2.12132,2.12132)" class="st1">
				<rect x="0" y="110.862" width="355.002" height="115.91" class="st5"/>
				<text x="17.33" y="226.42" class="st6" v:langID="2052"><v:paragraph v:horizAlign="1"/><v:tabList/>eeg</text>			</g>
			<rect x="0" y="110.862" width="355.002" height="115.91" class="st7"/>
			<text x="17.33" y="226.42" class="st8" v:langID="2052"><v:paragraph v:horizAlign="1"/><v:tabList/>eeg</text>		</g>
	</g>
</svg>
