<?xml version="1.0" encoding="UTF-8" standalone="no"?>
<!DOCTYPE svg PUBLIC "-//W3C//DTD SVG 1.1//EN" "http://www.w3.org/Graphics/SVG/1.1/DTD/svg11.dtd">
<!-- 由 Microsoft Visio, SVG Export 生成 logo.svg Page-1 -->
<svg xmlns="http://www.w3.org/2000/svg" xmlns:xlink="http://www.w3.org/1999/xlink" xmlns:ev="http://www.w3.org/2001/xml-events"
		width="2.47332in" height="2.47332in" viewBox="0 0 178.079 178.079" xml:space="preserve" color-interpolation-filters="sRGB"
		class="st5">
	<style type="text/css">
	<![CDATA[
		.st1 {visibility:visible}
		.st2 {fill:#000000;fill-opacity:0.4;filter:url(#filter_2.6666667461395);stroke:none}
		.st3 {fill:url(#grad0-7);stroke:none;stroke-width:0.25}
		.st4 {fill:url(#grad0-14);stroke:none;stroke-width:0.25}
		.st5 {fill:none;fill-rule:evenodd;font-size:12px;overflow:visible;stroke-linecap:square;stroke-miterlimit:3}
	]]>
	</style>

	<defs id="Patterns_And_Gradients">
		<linearGradient id="grad0-7" x1="0" y1="0" x2="1" y2="0" gradientTransform="rotate(135 0.5 0.5)">
			<stop offset="0" stop-color="#36d1dc" stop-opacity="1"/>
			<stop offset="1" stop-color="#5b86e5" stop-opacity="1"/>
		</linearGradient>
		<linearGradient id="grad0-14" x1="0" y1="0" x2="1" y2="0" gradientTransform="rotate(315 0.5 0.5)">
			<stop offset="0" stop-color="#5b86e5" stop-opacity="1"/>
			<stop offset="1" stop-color="#36d1dc" stop-opacity="1"/>
		</linearGradient>
	</defs>
	<defs id="Filters">
		<filter id="filter_2.6666667461395">
			<feGaussianBlur stdDeviation="2.6666667461395"/>
		</filter>
	</defs>
	<g>
		<title>页-1</title>
		<g id="shape4-1" transform="translate(-86.9181,86.918) rotate(-90) scale(-1,1)">
			<title>L 形状.4</title>
			<g id="shadow4-2" transform="matrix(1,0,0,1,2.12132,-2.12132)" class="st1">
				<path d="M11.34 178.08 L74.41 178.08 A10.6299 10.6299 -180 0 0 85.04 167.45 L85.04 167.45 A10.6299 10.6299 -180 0
							 0 74.41 156.82 L32.6 156.82 A11.3386 11.3386 0 0 1 21.26 145.48 L21.26 103.67 A10.6299 10.6299 -180
							 0 0 10.63 93.04 L10.63 93.04 A10.6299 10.6299 -180 0 0 0 103.67 L0 166.74 A11.3386 11.3386 -180 0 0
							 11.34 178.08 Z" class="st2"/>
			</g>
			<path d="M11.34 178.08 L74.41 178.08 A10.6299 10.6299 -180 0 0 85.04 167.45 L85.04 167.45 A10.6299 10.6299 -180 0 0 74.41
						 156.82 L32.6 156.82 A11.3386 11.3386 0 0 1 21.26 145.48 L21.26 103.67 A10.6299 10.6299 -180 0 0 10.63 93.04
						 L10.63 93.04 A10.6299 10.6299 -180 0 0 0 103.67 L0 166.74 A11.3386 11.3386 -180 0 0 11.34 178.08 Z"
					class="st3"/>
		</g>
		<g id="shape3-8" transform="translate(91.1607,-91.1607)">
			<title>L 形状</title>
			<g id="shadow3-9" transform="matrix(1,0,0,1,-2.12132,2.12132)" class="st1">
				<path d="M11.34 178.08 L74.41 178.08 A10.6299 10.6299 -180 0 0 85.04 167.45 L85.04 167.45 A10.6299 10.6299 -180 0
							 0 74.41 156.82 L32.6 156.82 A11.3386 11.3386 0 0 1 21.26 145.48 L21.26 103.67 A10.6299 10.6299 -180
							 0 0 10.63 93.04 L10.63 93.04 A10.6299 10.6299 -180 0 0 0 103.67 L0 166.74 A11.3386 11.3386 -180 0 0
							 11.34 178.08 Z" class="st2"/>
			</g>
			<path d="M11.34 178.08 L74.41 178.08 A10.6299 10.6299 -180 0 0 85.04 167.45 L85.04 167.45 A10.6299 10.6299 -180 0 0 74.41
						 156.82 L32.6 156.82 A11.3386 11.3386 0 0 1 21.26 145.48 L21.26 103.67 A10.6299 10.6299 -180 0 0 10.63 93.04
						 L10.63 93.04 A10.6299 10.6299 -180 0 0 0 103.67 L0 166.74 A11.3386 11.3386 -180 0 0 11.34 178.08 Z"
					class="st4"/>
		</g>
	</g>
</svg>
